Coordinates
version=1
nRows=32
nColumns=12
inDegrees=yes

Units are S.I. units (second, meters, Newtons, ...)
Angles are in degrees

endheader
time	SC_y	SC_z	SC_x	AC_y	AC_z	AC_x	GH_y	GH_z	GH_yy	EL_x	PS_y
       0.0              -52.66           -3.4          46.96          46.12         0.1238         -17.79         -4.377         -18.34         -18.69          139.1          42.61
  0.004346              -52.65         -3.397          46.97          46.12          0.121         -17.79         -4.394         -18.34         -18.68          139.1          42.62
  0.008692              -52.65         -3.393          46.97          46.12         0.1181         -17.79         -4.413         -18.33         -18.67          139.1          42.63
   0.01304              -52.65          -3.39          46.97          46.12         0.1149         -17.79         -4.432         -18.33         -18.66          139.1          42.64
   0.01738              -52.65         -3.386          46.98          46.12         0.1115         -17.79         -4.453         -18.32         -18.65          139.0          42.65
   0.02173              -52.65         -3.383          46.98          46.12          0.108         -17.79         -4.475         -18.32         -18.64          139.0          42.67
   0.02608              -52.65         -3.378          46.99          46.12         0.1041         -17.79         -4.499         -18.31         -18.63          139.0          42.68
   0.03042              -52.65         -3.374          46.99          46.11            0.1         -17.79         -4.524          -18.3         -18.62          139.0          42.69
   0.03477              -52.65         -3.369           47.0          46.11        0.09563         -17.79         -4.551          -18.3          -18.6          139.0          42.71
   0.03911              -52.65         -3.364          47.01          46.11        0.09092         -17.79          -4.58         -18.29         -18.59          139.0          42.73
   0.04346              -52.65         -3.359          47.01          46.11        0.08586         -17.79         -4.611         -18.28         -18.57          139.0          42.74
   0.04781              -52.65         -3.353          47.02          46.11        0.08042         -17.78         -4.645         -18.27         -18.55          139.0          42.76
   0.05215              -52.65         -3.347          47.03          46.11        0.07455         -17.78         -4.681         -18.26         -18.53          139.0          42.78
    0.0565              -52.65          -3.34          47.04          46.11        0.06821         -17.78          -4.72         -18.25         -18.51          139.0          42.81
   0.06085              -52.65         -3.332          47.05          46.11        0.06135         -17.78         -4.762         -18.24         -18.49          138.9          42.83
   0.06519              -52.65         -3.324          47.06          46.11        0.05391         -17.78         -4.808         -18.23         -18.47          138.9          42.86
   0.06954              -52.65         -3.316          47.07          46.11        0.04583         -17.78         -4.858         -18.22         -18.44          138.9          42.88
   0.07388              -52.65         -3.306          47.08          46.11        0.03702         -17.78         -4.913          -18.2         -18.41          138.9          42.92
   0.07823              -52.64         -3.296          47.09          46.11         0.0274         -17.78         -4.972         -18.19         -18.38          138.9          42.95
   0.08258              -52.64         -3.285          47.11          46.11        0.01687         -17.78         -5.037         -18.17         -18.35          138.8          42.99
   0.08692              -52.64         -3.272          47.12          46.11       0.005313         -17.78         -5.108         -18.15         -18.31          138.8          43.03
   0.09127              -52.64         -3.259          47.14          46.11      -0.007414         -17.78         -5.187         -18.13         -18.27          138.8          43.07
   0.09561              -52.64         -3.244          47.16          46.11       -0.02147         -17.78         -5.273         -18.11         -18.23          138.8          43.12
   0.09996              -52.64         -3.227          47.18          46.11       -0.03704         -17.78         -5.369         -18.08         -18.18          138.7          43.18
    0.1043              -52.63         -3.208           47.2          46.11       -0.05435         -17.78         -5.476         -18.05         -18.12          138.7          43.24
    0.1087              -52.63         -3.187          47.23          46.11       -0.07367         -17.78         -5.595         -18.02         -18.06          138.6          43.31
     0.113              -52.63         -3.164          47.26          46.11       -0.09531         -17.77         -5.729         -17.99         -17.99          138.6          43.38
    0.1173              -52.63         -3.138          47.29          46.11        -0.1197         -17.77         -5.879         -17.95         -17.91          138.5          43.47
    0.1217              -52.62         -3.109          47.33          46.11        -0.1472         -17.77         -6.049          -17.9         -17.82          138.5          43.56
     0.126              -52.62         -3.075          47.37          46.11        -0.1784         -17.77         -6.241         -17.85         -17.72          138.4          43.67
    0.1304              -52.62         -3.037          47.42          46.11         -0.214         -17.77         -6.461          -17.8         -17.61          138.3           43.8
    0.1347              -52.61         -2.993          47.47          46.11        -0.2549         -17.76         -6.713         -17.73         -17.47          138.3          43.94
